<?xml version="1.0" standalone="no"?><svg xmlns="http://www.w3.org/2000/svg" viewBox="0 0 1440 320"><path fill="#00cba9" fill-opacity="1" d="M0,160L20,149.3C40,139,80,117,120,138.7C160,160,200,224,240,213.3C280,203,320,117,360,101.3C400,85,440,139,480,170.7C520,203,560,213,600,213.3C640,213,680,203,720,170.7C760,139,800,85,840,53.3C880,21,920,11,960,37.3C1000,64,1040,128,1080,149.3C1120,171,1160,149,1200,128C1240,107,1280,85,1320,64C1360,43,1400,21,1420,10.7L1440,0L1440,320L1420,320C1400,320,1360,320,1320,320C1280,320,1240,320,1200,320C1160,320,1120,320,1080,320C1040,320,1000,320,960,320C920,320,880,320,840,320C800,320,760,320,720,320C680,320,640,320,600,320C560,320,520,320,480,320C440,320,400,320,360,320C320,320,280,320,240,320C200,320,160,320,120,320C80,320,40,320,20,320L0,320Z"></path></svg>